# xmcd
#
# Track frame offsets: 
#        150
#        18007
#        33542
#        51160
#        64945
#        83357
#        101725
#        116115
#        129195
#        143605
#        160462
#        177242
#        192362
#        207600
#        236386
#
# Disc length: 4385 seconds
#
# Revision: 1
# Processed by: cddbd v1.5.2PL0 Copyright (c) Steve Scherf et al.
# Submitted via: ExactAudioCopy v0.99pb5
#
DISCID=c9111f0f
DTITLE=Collin Raye - Best Of Collin Raye Direct Hits
DYEAR=1997
DGENRE=Country
TTITLE0=Little Rock
TTITLE1=I Think About You
TTITLE2=Not That Diffrent
TTITLE3=That's My Story
TTITLE4=If I Were You
TTITLE5=One Boy, One Girl
TTITLE6=In This Life
TTITLE7=My Kind Of Girl
TTITLE8=That Was A River
TTITLE9=What The Heart Wants
TTITLE10=The Gift (with Jack Brickman)
TTITLE11=Open Arms
TTITLE12=Little Red Rodeo
TTITLE13=Love, Me
TTITLE14=DATA
EXTD=
EXTT0=
EXTT1=
EXTT2=
EXTT3=
EXTT4=
EXTT5=
EXTT6=
EXTT7=
EXTT8=
EXTT9=
EXTT10=
EXTT11=
EXTT12=
EXTT13=
EXTT14=
PLAYORDER=
